<svg width="132" height="32" viewBox="0 0 132 32" fill="none" xmlns="http://www.w3.org/2000/svg">
<g opacity="0.9">
<path d="M19 27.3L18.4 26.8C16.4 24.9 15 23.7 15 22.2C15 21 16 20 17.2 20C17.9 20 18.6 20.3 19 20.8C19.4 20.3 20.1 20 20.8 20C22 20 23 20.9 23 22.2C23 23.7 21.6 24.9 19.6 26.8L19 27.3Z" fill="#50B2C0"/>
<path d="M18 6C19.1 6 20 6.9 20 8V17.08L19 17L18 17.08V8H13V16L10.5 13.75L8 16V8H6V24H13.08C13.2 24.72 13.45 25.39 13.8 26H6C4.9 26 4 25.1 4 24V8C4 6.9 4.9 6 6 6H18Z" fill="#8381D9"/>
<path d="M33.6865 23V8.9H39.8465C41.3265 8.9 42.4732 9.22667 43.2865 9.88C44.0998 10.52 44.5065 11.4133 44.5065 12.56C44.5065 13.32 44.3132 13.9733 43.9265 14.52C43.5398 15.0667 43.0065 15.4667 42.3265 15.72C43.1265 15.9467 43.7465 16.3467 44.1865 16.92C44.6398 17.48 44.8665 18.1933 44.8665 19.06C44.8665 20.3133 44.4398 21.2867 43.5865 21.98C42.7465 22.66 41.5732 23 40.0665 23H33.6865ZM36.1465 14.88H39.4065C41.1532 14.88 42.0265 14.2067 42.0265 12.86C42.0265 11.5133 41.1532 10.84 39.4065 10.84H36.1465V14.88ZM36.1465 21.06H39.7465C41.5065 21.06 42.3865 20.3533 42.3865 18.94C42.3865 17.5267 41.5065 16.82 39.7465 16.82H36.1465V21.06ZM51.676 23.2C50.6627 23.2 49.7827 22.9933 49.036 22.58C48.2893 22.1667 47.7093 21.58 47.296 20.82C46.8827 20.0467 46.676 19.14 46.676 18.1C46.676 17.06 46.8827 16.16 47.296 15.4C47.7093 14.64 48.2893 14.0533 49.036 13.64C49.7827 13.2267 50.6627 13.02 51.676 13.02C52.6893 13.02 53.5693 13.2267 54.316 13.64C55.0627 14.0533 55.6427 14.64 56.056 15.4C56.4693 16.16 56.676 17.06 56.676 18.1C56.676 19.14 56.4693 20.0467 56.056 20.82C55.6427 21.58 55.0627 22.1667 54.316 22.58C53.5693 22.9933 52.6893 23.2 51.676 23.2ZM51.676 21.3C52.4227 21.3 53.0227 21.0333 53.476 20.5C53.9293 19.9533 54.156 19.1533 54.156 18.1C54.156 17.0333 53.9293 16.24 53.476 15.72C53.0227 15.1867 52.4227 14.92 51.676 14.92C50.9293 14.92 50.3293 15.1867 49.876 15.72C49.4227 16.24 49.196 17.0333 49.196 18.1C49.196 19.1533 49.4227 19.9533 49.876 20.5C50.3293 21.0333 50.9293 21.3 51.676 21.3ZM63.1995 23.2C62.1861 23.2 61.3061 22.9933 60.5595 22.58C59.8128 22.1667 59.2328 21.58 58.8195 20.82C58.4061 20.0467 58.1995 19.14 58.1995 18.1C58.1995 17.06 58.4061 16.16 58.8195 15.4C59.2328 14.64 59.8128 14.0533 60.5595 13.64C61.3061 13.2267 62.1861 13.02 63.1995 13.02C64.2128 13.02 65.0928 13.2267 65.8395 13.64C66.5861 14.0533 67.1661 14.64 67.5795 15.4C67.9928 16.16 68.1995 17.06 68.1995 18.1C68.1995 19.14 67.9928 20.0467 67.5795 20.82C67.1661 21.58 66.5861 22.1667 65.8395 22.58C65.0928 22.9933 64.2128 23.2 63.1995 23.2ZM63.1995 21.3C63.9461 21.3 64.5461 21.0333 64.9995 20.5C65.4528 19.9533 65.6795 19.1533 65.6795 18.1C65.6795 17.0333 65.4528 16.24 64.9995 15.72C64.5461 15.1867 63.9461 14.92 63.1995 14.92C62.4528 14.92 61.8528 15.1867 61.3995 15.72C60.9461 16.24 60.7195 17.0333 60.7195 18.1C60.7195 19.1533 60.9461 19.9533 61.3995 20.5C61.8528 21.0333 62.4528 21.3 63.1995 21.3ZM70.2629 23V8.9H72.7629V17.38H72.8029L76.7429 13.22H79.7629L75.3229 17.9L80.0429 23H76.9829L72.8029 18.64H72.7629V23H70.2629ZM85.7455 23L79.4655 8.9H82.2055L86.8655 19.72L91.5255 8.9H94.1655L87.8855 23H85.7455ZM98.7938 23.2C97.6872 23.2 96.7338 22.9933 95.9338 22.58C95.1338 22.1667 94.5138 21.58 94.0738 20.82C93.6472 20.06 93.4338 19.16 93.4338 18.12C93.4338 17.1067 93.6405 16.22 94.0538 15.46C94.4805 14.7 95.0605 14.1067 95.7938 13.68C96.5405 13.24 97.3872 13.02 98.3338 13.02C99.7205 13.02 100.814 13.46 101.614 14.34C102.427 15.22 102.834 16.42 102.834 17.94V18.68H95.8338C96.0205 20.4267 97.0205 21.3 98.8338 21.3C99.3805 21.3 99.9272 21.22 100.474 21.06C101.02 20.8867 101.52 20.62 101.974 20.26L102.674 21.94C102.207 22.3267 101.62 22.6333 100.914 22.86C100.207 23.0867 99.5005 23.2 98.7938 23.2ZM98.4338 14.72C97.7005 14.72 97.1072 14.9467 96.6538 15.4C96.2005 15.8533 95.9272 16.4667 95.8338 17.24H100.754C100.7 16.4267 100.474 15.8067 100.074 15.38C99.6872 14.94 99.1405 14.72 98.4338 14.72ZM104.814 23V13.22H107.254V14.94C107.734 13.78 108.76 13.14 110.334 13.02L111.094 12.96L111.254 15.08L109.814 15.22C108.174 15.38 107.354 16.22 107.354 17.74V23H104.814ZM116.128 23.2C115.301 23.2 114.528 23.1 113.808 22.9C113.088 22.7 112.488 22.4133 112.008 22.04L112.648 20.4C113.141 20.7333 113.695 20.9933 114.308 21.18C114.921 21.3533 115.535 21.44 116.148 21.44C116.788 21.44 117.261 21.3333 117.568 21.12C117.888 20.8933 118.048 20.6 118.048 20.24C118.048 19.68 117.635 19.32 116.808 19.16L114.808 18.78C113.115 18.46 112.268 17.58 112.268 16.14C112.268 15.5 112.441 14.9467 112.788 14.48C113.148 14.0133 113.641 13.6533 114.268 13.4C114.895 13.1467 115.615 13.02 116.428 13.02C117.121 13.02 117.788 13.12 118.428 13.32C119.068 13.5067 119.615 13.7933 120.068 14.18L119.388 15.82C119.001 15.5 118.535 15.2467 117.988 15.06C117.455 14.8733 116.941 14.78 116.448 14.78C115.795 14.78 115.308 14.8933 114.988 15.12C114.681 15.3467 114.528 15.6467 114.528 16.02C114.528 16.6067 114.908 16.9667 115.668 17.1L117.668 17.48C118.535 17.64 119.188 17.9333 119.628 18.36C120.081 18.7867 120.308 19.36 120.308 20.08C120.308 21.0533 119.928 21.82 119.168 22.38C118.408 22.9267 117.395 23.2 116.128 23.2ZM127.134 23.2C126.027 23.2 125.074 22.9933 124.274 22.58C123.474 22.1667 122.854 21.58 122.414 20.82C121.987 20.06 121.774 19.16 121.774 18.12C121.774 17.1067 121.98 16.22 122.394 15.46C122.82 14.7 123.4 14.1067 124.134 13.68C124.88 13.24 125.727 13.02 126.674 13.02C128.06 13.02 129.154 13.46 129.954 14.34C130.767 15.22 131.174 16.42 131.174 17.94V18.68H124.174C124.36 20.4267 125.36 21.3 127.174 21.3C127.72 21.3 128.267 21.22 128.814 21.06C129.36 20.8867 129.86 20.62 130.314 20.26L131.014 21.94C130.547 22.3267 129.96 22.6333 129.254 22.86C128.547 23.0867 127.84 23.2 127.134 23.2ZM126.774 14.72C126.04 14.72 125.447 14.9467 124.994 15.4C124.54 15.8533 124.267 16.4667 124.174 17.24H129.094C129.04 16.4267 128.814 15.8067 128.414 15.38C128.027 14.94 127.48 14.72 126.774 14.72Z" fill="url(#paint0_linear_726_2443)"/>
</g>
<defs>
<linearGradient id="paint0_linear_726_2443" x1="32" y1="16.3137" x2="132" y2="16.3137" gradientUnits="userSpaceOnUse">
<stop stop-color="#7FD1CC"/>
<stop offset="1" stop-color="#9694F5"/>
</linearGradient>
</defs>
</svg>
